<?xml version="1.0" encoding="UTF-8"?>
<svg width="1024px" height="1024px" viewBox="0 0 1024 1024" version="1.1" xmlns="http://www.w3.org/2000/svg" xmlns:xlink="http://www.w3.org/1999/xlink">
    <!-- Generator: Sketch 56.2 (81672) - https://sketch.com -->
    <title>appicon</title>
    <desc>Created with Sketch.</desc>
    <g id="appicon" stroke="none" stroke-width="1" fill="none" fill-rule="evenodd">
        <g id="book">
            <rect id="Rectangle" fill="#FFFFFF" x="0" y="0" width="1024" height="1024"></rect>
            <g id="dollar-sign" transform="translate(319.000000, 181.000000)" fill="#292F36" fill-rule="nonzero">
                <path d="M165,27.5833333 L165,634.416667 C165,649.650521 177.536027,662 193,662 C208.463973,662 221,649.650521 221,634.416667 L221,27.5833333 C221,12.349479 208.463973,0 193,0 C177.536027,0 165,12.349479 165,27.5833333 Z" id="Path"></path>
                <path d="M330.857143,110 L124.071429,110 C55.5486707,110 0,165.656602 0,234.3125 C0,302.968398 55.5486707,358.625 124.071429,358.625 L261.928571,358.625 C299.996769,358.625 330.857143,389.545335 330.857143,427.6875 C330.857143,465.829665 299.996769,496.75 261.928571,496.75 L27.5714286,496.75 C12.344149,496.75 0,509.118134 0,524.375 C0,539.631866 12.344149,552 27.5714286,552 L261.928571,552 C330.451329,552 386,496.343397 386,427.6875 C386,359.031603 330.451329,303.375 261.928571,303.375 L124.071429,303.375 C86.0032297,303.375 55.1428571,272.454666 55.1428571,234.3125 C55.1428571,196.170334 86.0032297,165.25 124.071429,165.25 L330.857143,165.25 C346.084422,165.25 358.428571,152.881866 358.428571,137.625 C358.428571,122.368134 346.084422,110 330.857143,110 Z" id="Path"></path>
            </g>
            <g id="circle" transform="translate(67.000000, 67.000000)" fill="#292F36" fill-rule="nonzero">
                <path d="M445,890 C690.766714,890 890,690.766714 890,445 C890,199.233286 690.766714,0 445,0 C199.233286,0 0,199.233286 0,445 C0,690.766714 199.233286,890 445,890 Z M445,855 C218.563253,855 35,671.436747 35,445 C35,218.563253 218.563253,35 445,35 C671.436747,35 855,218.563253 855,445 C855,671.436747 671.436747,855 445,855 Z" id="Oval"></path>
            </g>
        </g>
    </g>
</svg>